# xmcd
#
# Track frame offsets: 
#        150
#        24637
#        46147
#        70910
#        100717
#        109027
#        130410
#        157170
#        173815
#        197400
#        218355
#
# Disc length: 3217 seconds
#
# Revision: 1
# Processed by: cddbd v1.5.2PL0 Copyright (c) Steve Scherf et al.
# Submitted via: ExactAudioCopy v0.99pb5
#
DISCID=8e0c8f0b
DTITLE=Johnny Guitar Watson - Love Jones
DYEAR=1980
DGENRE=Funk
TTITLE0=Booty Ooty
TTITLE1=Love Jones
TTITLE2=Going Up In Smoke
TTITLE3=Close Encounters
TTITLE4=Asante Sana
TTITLE5=Telephone Bill
TTITLE6=Lone Ranger
TTITLE7=Jet Plane
TTITLE8=Children of the Universe
TTITLE9=Funky Blues [Bonus Track]
TTITLE10=Untitled Mix [Bonus Track]
EXTD=
EXTT0=
EXTT1=
EXTT2=
EXTT3=
EXTT4=
EXTT5=
EXTT6=
EXTT7=
EXTT8=
EXTT9=
EXTT10=
PLAYORDER=
